<svg width="755" height="759" viewBox="0 0 755 759" fill="none" xmlns="http://www.w3.org/2000/svg">
<path fill-rule="evenodd" clip-rule="evenodd" d="M720.279 308.947H688.081C680.1 273.204 666.228 239.52 646.754 208.596L669.506 185.722C683.044 172.112 683.044 149.969 669.506 136.359L619.359 85.9452C612.801 79.3519 604.081 75.7218 594.807 75.7218C585.533 75.7218 576.813 79.3534 570.255 85.9452L547.504 108.818C516.742 89.2412 483.235 75.2955 447.681 67.2718V34.9051C447.681 15.6583 432.105 0 412.96 0H342.04C322.895 0 307.319 15.6583 307.319 34.9051V67.2732C271.765 75.297 238.258 89.2427 207.496 108.819L184.745 85.9467C178.187 79.3534 169.467 75.7218 160.193 75.7218C150.919 75.7218 142.199 79.3534 135.641 85.9452L85.4938 136.36C71.9555 149.97 71.9555 172.113 85.4938 185.723L108.247 208.597C88.7738 239.522 74.9016 273.206 66.9202 308.947H34.7211C15.5758 308.947 0 324.605 0 343.852V415.148C0 434.395 15.5758 450.053 34.7211 450.053H66.9202C74.9016 485.796 88.7738 519.478 108.247 550.403L85.4938 573.277C78.9366 579.869 75.3242 588.635 75.3242 597.958C75.3242 607.282 78.9366 616.047 85.4938 622.64L135.641 673.053C142.199 679.645 150.919 683.277 160.193 683.277C169.467 683.277 178.187 679.645 184.745 673.053L207.498 650.179C238.259 669.756 271.765 683.7 307.32 691.725V724.095C307.32 743.342 322.896 759 342.042 759H412.961C432.107 759 447.682 743.342 447.682 724.095V691.727C483.237 683.703 516.742 669.757 547.505 650.181L570.257 673.055C576.814 679.647 585.534 683.278 594.809 683.278C604.083 683.278 612.803 679.647 619.36 673.055L669.508 622.641C676.065 616.05 679.677 607.283 679.677 597.96C679.677 588.636 676.065 579.87 669.508 573.278L646.756 550.406C666.229 519.481 680.1 485.799 688.083 450.054H720.279C739.424 450.054 755 434.396 755 415.149V343.854C755 324.605 739.424 308.947 720.279 308.947ZM732.838 415.148C732.838 422.109 727.204 427.773 720.279 427.773H679.082C673.779 427.773 669.22 431.55 668.206 436.781C660.612 475.961 645.525 512.594 623.367 545.66C620.405 550.08 620.972 555.992 624.722 559.76L653.836 589.029C656.207 591.414 657.515 594.584 657.515 597.957C657.515 601.329 656.209 604.5 653.836 606.884L603.688 657.297C601.317 659.681 598.162 660.995 594.807 660.995C591.452 660.995 588.299 659.682 585.927 657.297L556.812 628.027C553.063 624.257 547.181 623.686 542.786 626.665C509.891 648.942 473.451 664.107 434.48 671.742C429.274 672.761 425.519 677.344 425.519 682.675V724.095C425.519 731.057 419.885 736.72 412.96 736.72H342.04C335.115 736.72 329.481 731.057 329.481 724.095V682.68C329.481 677.349 325.726 672.765 320.52 671.746C281.548 664.112 245.108 648.945 212.216 626.67C210.33 625.394 208.173 624.768 206.028 624.768C203.169 624.768 200.331 625.878 198.188 628.032L169.073 657.301C166.701 659.685 163.548 661 160.193 661C156.838 661 153.685 659.687 151.312 657.301L101.164 606.887C98.7927 604.503 97.4851 601.332 97.4851 597.96C97.4851 594.587 98.7912 591.417 101.164 589.032L130.28 559.762C134.029 555.992 134.597 550.082 131.634 545.662C109.475 512.594 94.3898 475.961 86.7954 436.783C85.7804 431.55 81.2223 427.775 75.9196 427.775H34.7211C27.7961 427.775 22.1624 422.111 22.1624 415.149V343.854C22.1624 336.892 27.7961 331.229 34.7211 331.229H75.9181C81.2209 331.229 85.7804 327.451 86.794 322.22C94.3883 283.042 109.475 246.409 131.633 213.341C134.595 208.921 134.028 203.009 130.278 199.241L101.164 169.968C96.2677 165.046 96.2677 157.036 101.164 152.113L151.312 101.7C153.683 99.3161 156.838 98.0016 160.193 98.0016C163.548 98.0016 166.701 99.3146 169.073 101.7L198.187 130.968C201.937 134.737 207.814 135.308 212.214 132.33C245.108 110.055 281.547 94.8884 320.52 87.2538C325.724 86.2334 329.481 81.6512 329.481 76.3189V34.9051C329.481 27.9434 335.115 22.2798 342.04 22.2798H412.96C419.885 22.2798 425.519 27.9434 425.519 34.9051V76.3204C425.519 81.6512 429.276 86.2349 434.48 87.2553C473.451 94.8899 509.891 110.055 542.786 132.332C547.184 135.31 553.065 134.74 556.813 130.97L585.929 101.702C588.3 99.3176 591.453 98.0031 594.809 98.0031C598.164 98.0031 601.317 99.3161 603.69 101.702L653.837 152.115C658.734 157.037 658.734 165.048 653.837 169.97L624.723 199.238C620.973 203.007 620.406 208.918 623.368 213.338C645.528 246.408 660.613 283.04 668.207 322.219C669.221 327.451 673.781 331.227 679.083 331.227H720.279C727.204 331.227 732.838 336.891 732.838 343.852V415.148ZM605 379.5C605 505.145 503.145 607 377.5 607C251.855 607 150 505.145 150 379.5C150 253.855 251.855 152 377.5 152C503.145 152 605 253.855 605 379.5ZM377.5 592C494.861 592 590 496.861 590 379.5C590 262.139 494.861 167 377.5 167C260.139 167 165 262.139 165 379.5C165 496.861 260.139 592 377.5 592ZM486.937 474.628C486.937 468.788 484.334 465.868 479.129 465.868C476.971 465.868 475.066 466.503 473.416 467.772C471.766 469.042 469.544 471.327 466.751 474.628C459.007 483.515 447.454 490.243 432.093 494.813C425.237 496.845 418.255 498.305 411.146 499.193C404.036 500.082 397.054 500.526 390.198 500.526C383.343 500.526 375.472 499.765 366.585 498.241V254.11C373.948 252.587 383.216 251.825 394.388 251.825C405.687 251.825 418.191 253.92 431.902 258.109C438.631 260.268 444.788 262.807 450.374 265.727C456.087 268.646 460.594 271.947 463.895 275.629C467.195 279.184 470.877 280.961 474.939 280.961C476.971 280.961 478.748 280.072 480.271 278.295C481.922 276.518 482.747 274.423 482.747 272.011C482.747 266.044 473.162 258.808 453.992 250.302C435.965 242.177 415.081 238.114 391.341 238.114C349.065 238.114 313.963 250.746 286.033 276.01C272.83 287.943 262.483 302.289 254.993 319.047C247.503 335.678 243.758 353.959 243.758 373.891C243.758 415.277 257.024 449.047 283.558 475.199C296.253 487.641 311.551 497.353 329.451 504.335C347.479 511.19 366.204 514.618 385.628 514.618C405.052 514.618 423.587 512.016 441.233 506.811C450.628 504.018 462.181 498.114 475.892 489.101C483.255 484.276 486.937 479.452 486.937 474.628Z" fill="black"/>
</svg>
